<svg width="138" height="63" viewBox="0 0 138 63" fill="none" xmlns="http://www.w3.org/2000/svg">
<path d="M87.6919 41H51.3081C50.2168 41 49.6075 42.0793 50.2833 42.8161L68.4752 62.5758C68.9959 63.1414 69.9986 63.1414 70.5248 62.5758L88.7167 42.8161C89.3925 42.0793 88.7832 41 87.6919 41Z" fill="#E9DFD6"/>
<path d="M0.912 29V27.992H1.224C1.592 27.992 1.92 27.952 2.208 27.872C2.512 27.792 2.752 27.632 2.928 27.392C3.104 27.136 3.192 26.76 3.192 26.264V14.6C3.192 14.088 3.104 13.712 2.928 13.472C2.752 13.232 2.512 13.072 2.208 12.992C1.92 12.912 1.592 12.872 1.224 12.872H0.912V11.864H7.896V12.872H7.584C7.232 12.872 6.904 12.912 6.6 12.992C6.312 13.056 6.072 13.208 5.88 13.448C5.704 13.672 5.616 14.024 5.616 14.504V27.8H10.344C10.824 27.8 11.208 27.696 11.496 27.488C11.8 27.264 12.024 26.984 12.168 26.648C12.312 26.312 12.408 25.976 12.456 25.64L12.696 23.84H13.944L13.776 29H0.912ZM22.0811 29.24C20.3371 29.24 18.9691 28.664 17.9771 27.512C17.0011 26.36 16.5131 24.744 16.5131 22.664C16.5131 20.424 16.9771 18.736 17.9051 17.6C18.8331 16.464 20.1451 15.896 21.8411 15.896C23.3931 15.896 24.6091 16.376 25.4891 17.336C26.3851 18.296 26.8331 19.728 26.8331 21.632V22.736H18.8411C18.8731 23.904 19.0251 24.856 19.2971 25.592C19.5691 26.328 19.9611 26.872 20.4731 27.224C21.0011 27.56 21.6491 27.728 22.4171 27.728C22.9771 27.728 23.4731 27.648 23.9051 27.488C24.3531 27.328 24.7371 27.12 25.0571 26.864C25.3931 26.608 25.6571 26.336 25.8491 26.048C25.9611 26.096 26.0651 26.192 26.1611 26.336C26.2571 26.48 26.3051 26.656 26.3051 26.864C26.3051 27.184 26.1531 27.528 25.8491 27.896C25.5451 28.264 25.0811 28.584 24.4571 28.856C23.8331 29.112 23.0411 29.24 22.0811 29.24ZM24.4091 21.44C24.4091 20.592 24.3211 19.848 24.1451 19.208C23.9851 18.568 23.7131 18.072 23.3291 17.72C22.9451 17.368 22.4331 17.192 21.7931 17.192C21.2011 17.192 20.6971 17.36 20.2811 17.696C19.8811 18.016 19.5611 18.488 19.3211 19.112C19.0971 19.736 18.9531 20.512 18.8891 21.44H24.4091ZM33.1969 29.24C32.4929 29.24 31.8529 29.104 31.2769 28.832C30.7169 28.544 30.2769 28.12 29.9569 27.56C29.6369 26.984 29.4769 26.264 29.4769 25.4C29.4769 24.12 29.9249 23.176 30.8209 22.568C31.7329 21.96 33.1089 21.624 34.9489 21.56L36.9409 21.488V20.048C36.9409 19.472 36.8929 18.968 36.7969 18.536C36.7009 18.088 36.4929 17.736 36.1729 17.48C35.8529 17.224 35.3649 17.096 34.7089 17.096C34.1009 17.096 33.6369 17.208 33.3169 17.432C32.9969 17.656 32.7809 17.968 32.6689 18.368C32.5729 18.752 32.5249 19.2 32.5249 19.712C31.8529 19.712 31.3409 19.6 30.9889 19.376C30.6529 19.136 30.4849 18.744 30.4849 18.2C30.4849 17.64 30.6769 17.192 31.0609 16.856C31.4609 16.52 31.9889 16.28 32.6449 16.136C33.3009 15.976 34.0209 15.896 34.8049 15.896C36.2769 15.896 37.3729 16.208 38.0929 16.832C38.8289 17.456 39.1969 18.528 39.1969 20.048V26.264C39.1969 26.712 39.2449 27.064 39.3409 27.32C39.4369 27.56 39.5969 27.736 39.8209 27.848C40.0449 27.944 40.3329 27.992 40.6849 27.992H40.7569V29H37.5169L37.1329 26.936H36.9409C36.6049 27.384 36.2769 27.784 35.9569 28.136C35.6369 28.472 35.2609 28.744 34.8289 28.952C34.4129 29.144 33.8689 29.24 33.1969 29.24ZM33.7489 27.752C34.4049 27.752 34.9649 27.616 35.4289 27.344C35.9089 27.072 36.2769 26.688 36.5329 26.192C36.8049 25.68 36.9409 25.088 36.9409 24.416V22.472L35.4049 22.544C34.4929 22.576 33.7729 22.712 33.2449 22.952C32.7329 23.192 32.3649 23.528 32.1409 23.96C31.9169 24.376 31.8049 24.896 31.8049 25.52C31.8049 26.016 31.8769 26.432 32.0209 26.768C32.1649 27.088 32.3809 27.336 32.6689 27.512C32.9569 27.672 33.3169 27.752 33.7489 27.752ZM42.8323 29V27.992H42.9043C43.2723 27.992 43.6003 27.952 43.8883 27.872C44.1923 27.792 44.4323 27.632 44.6083 27.392C44.7843 27.136 44.8723 26.76 44.8723 26.264V18.776C44.8723 18.296 44.7763 17.944 44.5843 17.72C44.4083 17.48 44.1683 17.328 43.8643 17.264C43.5763 17.184 43.2563 17.144 42.9043 17.144H42.8323V16.136H46.5283L46.9843 18.512H47.1043C47.3123 18.032 47.5363 17.592 47.7763 17.192C48.0163 16.792 48.3363 16.48 48.7363 16.256C49.1363 16.016 49.6883 15.896 50.3923 15.896C51.2723 15.896 51.9203 16.048 52.3363 16.352C52.7683 16.656 52.9843 17.088 52.9843 17.648C52.9843 18.144 52.8083 18.552 52.4563 18.872C52.1203 19.192 51.5523 19.352 50.7523 19.352C50.7523 18.904 50.7123 18.544 50.6323 18.272C50.5523 18 50.4163 17.8 50.2243 17.672C50.0483 17.544 49.8003 17.48 49.4803 17.48C49.0323 17.48 48.6563 17.656 48.3523 18.008C48.0483 18.36 47.8083 18.808 47.6323 19.352C47.4563 19.896 47.3283 20.464 47.2483 21.056C47.1683 21.632 47.1283 22.152 47.1283 22.616V26.384C47.1283 26.848 47.2163 27.2 47.3923 27.44C47.5843 27.664 47.8243 27.816 48.1123 27.896C48.4163 27.96 48.7443 27.992 49.0963 27.992H49.7683V29H42.8323ZM54.2492 29V27.992H54.4412C54.8092 27.992 55.1372 27.952 55.4252 27.872C55.7292 27.792 55.9692 27.632 56.1452 27.392C56.3212 27.136 56.4092 26.76 56.4092 26.264V18.776C56.4092 18.296 56.3212 17.944 56.1452 17.72C55.9692 17.48 55.7372 17.328 55.4492 17.264C55.1612 17.184 54.8412 17.144 54.4892 17.144H54.3692V16.136H58.2572L58.5692 18.08H58.6892C59.0252 17.472 59.3772 17.016 59.7452 16.712C60.1292 16.392 60.5452 16.176 60.9932 16.064C61.4412 15.952 61.9212 15.896 62.4332 15.896C63.6972 15.896 64.6812 16.272 65.3852 17.024C66.1052 17.76 66.4652 18.952 66.4652 20.6V26.264C66.4652 26.76 66.5372 27.136 66.6812 27.392C66.8412 27.632 67.0572 27.792 67.3292 27.872C67.6012 27.952 67.9132 27.992 68.2652 27.992H68.3852V29H64.2092V20.72C64.2092 19.68 64.0092 18.872 63.6092 18.296C63.2252 17.72 62.5452 17.432 61.5692 17.432C60.8492 17.432 60.2732 17.616 59.8412 17.984C59.4252 18.336 59.1212 18.808 58.9292 19.4C58.7532 19.992 58.6652 20.632 58.6652 21.32V26.384C58.6652 26.848 58.7532 27.2 58.9292 27.44C59.1052 27.664 59.3372 27.816 59.6252 27.896C59.9132 27.96 60.2332 27.992 60.5852 27.992H60.7052V29H54.2492ZM76.6723 29V27.992H76.9843C77.3363 27.992 77.6563 27.96 77.9443 27.896C78.2483 27.816 78.4883 27.664 78.6643 27.44C78.8563 27.2 78.9523 26.848 78.9523 26.384V14.504C78.9523 14.024 78.8563 13.672 78.6643 13.448C78.4883 13.208 78.2483 13.056 77.9443 12.992C77.6563 12.912 77.3363 12.872 76.9843 12.872H76.6723V11.864H82.1443L87.1123 25.592L92.0323 11.864H97.3603V12.872H97.0483C96.6963 12.872 96.3683 12.912 96.0643 12.992C95.7603 13.072 95.5203 13.232 95.3443 13.472C95.1683 13.712 95.0803 14.088 95.0803 14.6V26.264C95.0803 26.76 95.1683 27.136 95.3443 27.392C95.5203 27.632 95.7603 27.792 96.0643 27.872C96.3683 27.952 96.6963 27.992 97.0483 27.992H97.3603V29H90.9763V27.992H91.0483C91.4003 27.992 91.6963 27.96 91.9363 27.896C92.1923 27.816 92.3923 27.672 92.5363 27.464C92.6803 27.24 92.7603 26.912 92.7763 26.48V13.664L87.2803 29H85.9843L80.4163 13.712V26.264C80.4163 26.76 80.4803 27.136 80.6083 27.392C80.7523 27.632 80.9523 27.792 81.2083 27.872C81.4803 27.952 81.7923 27.992 82.1443 27.992H82.2163V29H76.6723ZM105.412 29.24C103.684 29.24 102.324 28.688 101.332 27.584C100.34 26.48 99.8438 24.8 99.8438 22.544C99.8438 20.304 100.316 18.64 101.26 17.552C102.22 16.448 103.628 15.896 105.484 15.896C107.212 15.896 108.572 16.448 109.564 17.552C110.556 18.64 111.052 20.304 111.052 22.544C111.052 24.8 110.572 26.48 109.612 27.584C108.668 28.688 107.268 29.24 105.412 29.24ZM105.46 27.992C106.26 27.992 106.9 27.792 107.38 27.392C107.86 26.976 108.204 26.36 108.412 25.544C108.62 24.728 108.724 23.728 108.724 22.544C108.724 21.344 108.612 20.352 108.388 19.568C108.18 18.768 107.836 18.168 107.356 17.768C106.876 17.368 106.236 17.168 105.436 17.168C104.636 17.168 103.996 17.368 103.516 17.768C103.036 18.168 102.692 18.768 102.484 19.568C102.276 20.352 102.172 21.344 102.172 22.544C102.172 23.728 102.276 24.728 102.484 25.544C102.708 26.36 103.06 26.976 103.54 27.392C104.02 27.792 104.66 27.992 105.46 27.992ZM113.407 29V27.992H113.479C113.847 27.992 114.175 27.952 114.463 27.872C114.767 27.792 115.007 27.632 115.183 27.392C115.359 27.136 115.447 26.76 115.447 26.264V18.776C115.447 18.296 115.351 17.944 115.159 17.72C114.983 17.48 114.743 17.328 114.439 17.264C114.151 17.184 113.831 17.144 113.479 17.144H113.407V16.136H117.103L117.559 18.512H117.679C117.887 18.032 118.111 17.592 118.351 17.192C118.591 16.792 118.911 16.48 119.311 16.256C119.711 16.016 120.263 15.896 120.967 15.896C121.847 15.896 122.495 16.048 122.911 16.352C123.343 16.656 123.559 17.088 123.559 17.648C123.559 18.144 123.383 18.552 123.031 18.872C122.695 19.192 122.127 19.352 121.327 19.352C121.327 18.904 121.287 18.544 121.207 18.272C121.127 18 120.991 17.8 120.799 17.672C120.623 17.544 120.375 17.48 120.055 17.48C119.607 17.48 119.231 17.656 118.927 18.008C118.623 18.36 118.383 18.808 118.207 19.352C118.031 19.896 117.903 20.464 117.823 21.056C117.743 21.632 117.703 22.152 117.703 22.616V26.384C117.703 26.848 117.791 27.2 117.967 27.44C118.159 27.664 118.399 27.816 118.687 27.896C118.991 27.96 119.319 27.992 119.671 27.992H120.343V29H113.407ZM131.04 29.24C129.296 29.24 127.928 28.664 126.936 27.512C125.96 26.36 125.472 24.744 125.472 22.664C125.472 20.424 125.936 18.736 126.864 17.6C127.792 16.464 129.104 15.896 130.8 15.896C132.352 15.896 133.568 16.376 134.448 17.336C135.344 18.296 135.792 19.728 135.792 21.632V22.736H127.8C127.832 23.904 127.984 24.856 128.256 25.592C128.528 26.328 128.92 26.872 129.432 27.224C129.96 27.56 130.608 27.728 131.376 27.728C131.936 27.728 132.432 27.648 132.864 27.488C133.312 27.328 133.696 27.12 134.016 26.864C134.352 26.608 134.616 26.336 134.808 26.048C134.92 26.096 135.024 26.192 135.12 26.336C135.216 26.48 135.264 26.656 135.264 26.864C135.264 27.184 135.112 27.528 134.808 27.896C134.504 28.264 134.04 28.584 133.416 28.856C132.792 29.112 132 29.24 131.04 29.24ZM133.368 21.44C133.368 20.592 133.28 19.848 133.104 19.208C132.944 18.568 132.672 18.072 132.288 17.72C131.904 17.368 131.392 17.192 130.752 17.192C130.16 17.192 129.656 17.36 129.24 17.696C128.84 18.016 128.52 18.488 128.28 19.112C128.056 19.736 127.912 20.512 127.848 21.44H133.368Z" fill="#FFF4E8"/>
</svg>
