<svg width="40" height="32" viewBox="0 0 40 32" fill="none" xmlns="http://www.w3.org/2000/svg">
<path d="M39.914 30.1745L37.2035 21.1064V1.3617C37.2035 0.608511 36.5629 0 35.7699 0H4.23009C3.43712 0 2.79646 0.608511 2.79646 1.3617V21.1064L0.0860117 30.1745C-0.249995 31.0638 0.439939 32 1.43452 32H38.5655C39.5601 32 40.25 31.0638 39.914 30.1745ZM6.02213 3.06383H33.9779V19.8723H6.02213V3.06383V3.06383ZM16.2502 28.9362L16.6131 27.3617H23.3466L23.7095 28.9362H16.2502V28.9362ZM26.2856 28.9362L25.4299 25.2468C25.394 25.0894 25.2462 24.9787 25.0804 24.9787H14.8837C14.7135 24.9787 14.5701 25.0894 14.5343 25.2468L13.6786 28.9362H3.80896L5.70404 22.5957H34.296L36.191 28.9362H26.2856Z" fill="#EE9937"/>
</svg>
