<svg width="42" height="39" viewBox="0 0 42 39" fill="none" xmlns="http://www.w3.org/2000/svg">
<path d="M41.8738 36.1967L28.2396 23.5364C30.3554 20.9965 31.4999 17.8912 31.4999 14.6249C31.4999 10.7152 29.8566 7.04922 26.8851 4.28511C23.9136 1.52099 19.9552 0 15.7499 0C11.5447 0 7.58622 1.52587 4.61473 4.28511C1.63799 7.04434 0 10.7152 0 14.6249C0 18.5298 1.64324 22.2055 4.61473 24.9648C7.58622 27.7289 11.5394 29.2499 15.7499 29.2499C19.2674 29.2499 22.6064 28.1871 25.3416 26.2274L38.9758 38.8828C39.0158 38.92 39.0633 38.9494 39.1155 38.9695C39.1678 38.9897 39.2238 39 39.2803 39C39.3369 39 39.3929 38.9897 39.4451 38.9695C39.4974 38.9494 39.5448 38.92 39.5848 38.8828L41.8738 36.7622C41.9138 36.7251 41.9456 36.681 41.9672 36.6325C41.9889 36.584 42 36.532 42 36.4795C42 36.427 41.9889 36.375 41.9672 36.3264C41.9456 36.2779 41.9138 36.2338 41.8738 36.1967V36.1967ZM24.0659 22.3469C21.8399 24.409 18.8894 25.5449 15.7499 25.5449C12.6104 25.5449 9.65996 24.409 7.43397 22.3469C5.21323 20.2799 3.98998 17.5402 3.98998 14.6249C3.98998 11.7097 5.21323 8.96509 7.43397 6.90297C9.65996 4.84085 12.6104 3.70498 15.7499 3.70498C18.8894 3.70498 21.8452 4.83598 24.0659 6.90297C26.2866 8.96996 27.5099 11.7097 27.5099 14.6249C27.5099 17.5402 26.2866 20.2848 24.0659 22.3469Z" fill="#D67172"/>
</svg>
