<svg width="43" height="42" viewBox="0 0 43 42" fill="none" xmlns="http://www.w3.org/2000/svg">
<path d="M10.75 16.7344C10.75 17.3311 10.9927 17.9034 11.4247 18.3254C11.8567 18.7473 12.4426 18.9844 13.0536 18.9844C13.6645 18.9844 14.2504 18.7473 14.6824 18.3254C15.1144 17.9034 15.3571 17.3311 15.3571 16.7344C15.3571 16.1376 15.1144 15.5653 14.6824 15.1434C14.2504 14.7214 13.6645 14.4844 13.0536 14.4844C12.4426 14.4844 11.8567 14.7214 11.4247 15.1434C10.9927 15.5653 10.75 16.1376 10.75 16.7344V16.7344ZM27.6429 16.7344C27.6429 17.3311 27.8856 17.9034 28.3176 18.3254C28.7496 18.7473 29.3355 18.9844 29.9464 18.9844C30.5574 18.9844 31.1433 18.7473 31.5753 18.3254C32.0073 17.9034 32.25 17.3311 32.25 16.7344C32.25 16.1376 32.0073 15.5653 31.5753 15.1434C31.1433 14.7214 30.5574 14.4844 29.9464 14.4844C29.3355 14.4844 28.7496 14.7214 28.3176 15.1434C27.8856 15.5653 27.6429 16.1376 27.6429 16.7344V16.7344ZM21.5 0C9.62701 0 0 9.40313 0 21C0 32.5969 9.62701 42 21.5 42C33.373 42 43 32.5969 43 21C43 9.40313 33.373 0 21.5 0ZM34.1217 33.3281C32.4804 34.9313 30.5703 36.1875 28.4443 37.0687C26.2511 37.9781 23.914 38.4375 21.5 38.4375C19.086 38.4375 16.7489 37.9781 14.5509 37.0687C12.4281 36.1931 10.4999 34.9226 8.87355 33.3281C7.23225 31.725 5.94609 29.8594 5.04386 27.7828C4.11763 25.6406 3.64732 23.3578 3.64732 21C3.64732 18.6422 4.11763 16.3594 5.04866 14.2125C5.94517 12.1391 7.24587 10.2557 8.87835 8.66719C10.5196 7.06406 12.4297 5.80781 14.5557 4.92656C16.7489 4.02188 19.086 3.5625 21.5 3.5625C23.914 3.5625 26.2511 4.02187 28.4491 4.93125C30.5719 5.80691 32.5001 7.07736 34.1264 8.67188C35.7677 10.275 37.0539 12.1406 37.9561 14.2172C38.8824 16.3594 39.3527 18.6422 39.3527 21C39.3527 23.3578 38.8824 25.6406 37.9513 27.7875C37.0559 29.8601 35.755 31.7422 34.1217 33.3281V33.3281ZM28.7946 21.9844H26.4863C26.2847 21.9844 26.1119 22.1344 26.0975 22.3313C25.9152 24.6516 23.9235 26.4844 21.5 26.4844C19.0765 26.4844 17.08 24.6516 16.9025 22.3313C16.8881 22.1344 16.7153 21.9844 16.5137 21.9844H14.2054C14.1533 21.9843 14.1017 21.9946 14.0539 22.0146C14.006 22.0346 13.9628 22.0639 13.9269 22.1008C13.8909 22.1376 13.8631 22.1812 13.845 22.2289C13.8268 22.2765 13.8188 22.3273 13.8214 22.3781C14.0326 26.3297 17.3968 29.4844 21.5 29.4844C25.6032 29.4844 28.9674 26.3297 29.1786 22.3781C29.1812 22.3273 29.1732 22.2765 29.155 22.2289C29.1369 22.1812 29.1091 22.1376 29.0731 22.1008C29.0372 22.0639 28.994 22.0346 28.9461 22.0146C28.8983 21.9946 28.8467 21.9843 28.7946 21.9844V21.9844Z" fill="#A0677F"/>
</svg>
